<mxfile host="app.diagrams.net" modified="2023-09-22T17:49:32.783Z" agent="Mozilla/5.0 (Macintosh; Intel Mac OS X 10_15_7) AppleWebKit/537.36 (KHTML, like Gecko) Chrome/117.0.0.0 Safari/537.36" etag="GkxQSLOF8TvKE1ZDmIPf" version="21.7.5" type="google">
  <diagram name="Page-1" id="bKOO1mc6yyyk0sMXNDOb">
    <mxGraphModel grid="1" page="1" gridSize="10" guides="1" tooltips="1" connect="1" arrows="1" fold="1" pageScale="1" pageWidth="291" pageHeight="413" math="0" shadow="0">
      <root>
        <mxCell id="0" />
        <mxCell id="1" parent="0" />
        <mxCell id="j-bda5yq90lWmngKnm9B-68" value="" style="whiteSpace=wrap;html=1;aspect=fixed;" vertex="1" parent="1">
          <mxGeometry x="20" y="200" width="600" height="600" as="geometry" />
        </mxCell>
        <mxCell id="j-bda5yq90lWmngKnm9B-1" value="" style="rounded=1;whiteSpace=wrap;html=1;" vertex="1" parent="1">
          <mxGeometry x="40" y="260" width="240" height="150" as="geometry" />
        </mxCell>
        <mxCell id="j-bda5yq90lWmngKnm9B-2" value="" style="rounded=1;whiteSpace=wrap;html=1;" vertex="1" parent="1">
          <mxGeometry x="40" y="410" width="170" height="60" as="geometry" />
        </mxCell>
        <mxCell id="j-bda5yq90lWmngKnm9B-3" value="" style="rounded=1;whiteSpace=wrap;html=1;" vertex="1" parent="1">
          <mxGeometry x="210" y="410" width="70" height="60" as="geometry" />
        </mxCell>
        <mxCell id="j-bda5yq90lWmngKnm9B-4" value="Items/Spells&lt;br&gt;Menu" style="text;html=1;strokeColor=none;fillColor=none;align=center;verticalAlign=middle;whiteSpace=wrap;rounded=0;" vertex="1" parent="1">
          <mxGeometry x="215" y="415" width="60" height="50" as="geometry" />
        </mxCell>
        <mxCell id="j-bda5yq90lWmngKnm9B-5" value="&lt;h1&gt;&lt;br&gt;&lt;/h1&gt;&lt;p&gt;&lt;font style=&quot;font-size: 8px;&quot;&gt;Lorem ipsum dolor sit amet, consectetur adipisicing elit, sed do eiusmod tempor incididunt ut labore et dolore magna aliqua.&lt;/font&gt;&lt;/p&gt;" style="text;html=1;strokeColor=none;fillColor=none;spacing=5;spacingTop=-20;whiteSpace=wrap;overflow=hidden;rounded=0;" vertex="1" parent="1">
          <mxGeometry x="45" y="370" width="170" height="130" as="geometry" />
        </mxCell>
        <mxCell id="j-bda5yq90lWmngKnm9B-6" value="Actor" style="shape=umlActor;verticalLabelPosition=bottom;verticalAlign=top;html=1;outlineConnect=0;" vertex="1" parent="1">
          <mxGeometry x="60" y="340" width="30" height="60" as="geometry" />
        </mxCell>
        <mxCell id="j-bda5yq90lWmngKnm9B-7" value="Actor" style="shape=umlActor;verticalLabelPosition=bottom;verticalAlign=top;html=1;outlineConnect=0;" vertex="1" parent="1">
          <mxGeometry x="185" y="270" width="30" height="60" as="geometry" />
        </mxCell>
        <mxCell id="j-bda5yq90lWmngKnm9B-8" value="" style="rounded=1;whiteSpace=wrap;html=1;" vertex="1" parent="1">
          <mxGeometry x="35" y="520" width="240" height="150" as="geometry" />
        </mxCell>
        <mxCell id="j-bda5yq90lWmngKnm9B-9" value="" style="rounded=1;whiteSpace=wrap;html=1;" vertex="1" parent="1">
          <mxGeometry x="35" y="670" width="170" height="60" as="geometry" />
        </mxCell>
        <mxCell id="j-bda5yq90lWmngKnm9B-10" value="" style="rounded=1;whiteSpace=wrap;html=1;" vertex="1" parent="1">
          <mxGeometry x="205" y="670" width="70" height="60" as="geometry" />
        </mxCell>
        <mxCell id="j-bda5yq90lWmngKnm9B-11" value="Items/Spells&lt;br&gt;Menu" style="text;html=1;strokeColor=none;fillColor=none;align=center;verticalAlign=middle;whiteSpace=wrap;rounded=0;" vertex="1" parent="1">
          <mxGeometry x="210" y="685" width="60" height="30" as="geometry" />
        </mxCell>
        <mxCell id="j-bda5yq90lWmngKnm9B-12" value="&lt;h1&gt;&lt;br&gt;&lt;/h1&gt;&lt;p&gt;&lt;font style=&quot;font-size: 8px;&quot;&gt;Lorem ipsum dolor sit amet, consectetur adipisicing elit, sed do eiusmod tempor incididunt ut labore et dolore magna aliqua.&lt;/font&gt;&lt;/p&gt;" style="text;html=1;strokeColor=none;fillColor=none;spacing=5;spacingTop=-20;whiteSpace=wrap;overflow=hidden;rounded=0;" vertex="1" parent="1">
          <mxGeometry x="40" y="630" width="170" height="130" as="geometry" />
        </mxCell>
        <mxCell id="j-bda5yq90lWmngKnm9B-13" value="Actor" style="shape=umlActor;verticalLabelPosition=bottom;verticalAlign=top;html=1;outlineConnect=0;" vertex="1" parent="1">
          <mxGeometry x="140" y="540" width="30" height="60" as="geometry" />
        </mxCell>
        <mxCell id="j-bda5yq90lWmngKnm9B-17" value="" style="endArrow=none;html=1;rounded=0;" edge="1" parent="1">
          <mxGeometry width="50" height="50" relative="1" as="geometry">
            <mxPoint x="45" y="400" as="sourcePoint" />
            <mxPoint x="165" y="325" as="targetPoint" />
          </mxGeometry>
        </mxCell>
        <mxCell id="j-bda5yq90lWmngKnm9B-18" value="" style="endArrow=none;html=1;rounded=0;" edge="1" parent="1">
          <mxGeometry width="50" height="50" relative="1" as="geometry">
            <mxPoint x="85" y="410" as="sourcePoint" />
            <mxPoint x="205" y="335" as="targetPoint" />
          </mxGeometry>
        </mxCell>
        <mxCell id="j-bda5yq90lWmngKnm9B-19" value="" style="rounded=0;whiteSpace=wrap;html=1;" vertex="1" parent="1">
          <mxGeometry x="166" y="360" width="100" height="40" as="geometry" />
        </mxCell>
        <mxCell id="j-bda5yq90lWmngKnm9B-20" value="Item Icons" style="text;html=1;strokeColor=none;fillColor=none;align=center;verticalAlign=middle;whiteSpace=wrap;rounded=0;" vertex="1" parent="1">
          <mxGeometry x="185" y="365" width="60" height="30" as="geometry" />
        </mxCell>
        <mxCell id="j-bda5yq90lWmngKnm9B-21" value="You" style="text;html=1;strokeColor=none;fillColor=none;align=center;verticalAlign=middle;whiteSpace=wrap;rounded=0;" vertex="1" parent="1">
          <mxGeometry x="45" y="310" width="60" height="30" as="geometry" />
        </mxCell>
        <mxCell id="j-bda5yq90lWmngKnm9B-22" value="NPC" style="text;html=1;strokeColor=none;fillColor=none;align=center;verticalAlign=middle;whiteSpace=wrap;rounded=0;" vertex="1" parent="1">
          <mxGeometry x="170" y="250" width="60" height="30" as="geometry" />
        </mxCell>
        <mxCell id="j-bda5yq90lWmngKnm9B-23" value="NPC" style="text;html=1;strokeColor=none;fillColor=none;align=center;verticalAlign=middle;whiteSpace=wrap;rounded=0;" vertex="1" parent="1">
          <mxGeometry x="125" y="520" width="60" height="30" as="geometry" />
        </mxCell>
        <mxCell id="j-bda5yq90lWmngKnm9B-24" value="General Screen: Travel/Combat" style="text;html=1;strokeColor=none;fillColor=none;align=center;verticalAlign=middle;whiteSpace=wrap;rounded=0;" vertex="1" parent="1">
          <mxGeometry x="85" y="220" width="150" height="30" as="geometry" />
        </mxCell>
        <mxCell id="j-bda5yq90lWmngKnm9B-25" value="Chat Screen: Conversation/Shopping" style="text;html=1;strokeColor=none;fillColor=none;align=center;verticalAlign=middle;whiteSpace=wrap;rounded=0;" vertex="1" parent="1">
          <mxGeometry x="95" y="480" width="135" height="30" as="geometry" />
        </mxCell>
        <mxCell id="j-bda5yq90lWmngKnm9B-27" value="&lt;h1&gt;Events&lt;/h1&gt;&lt;p&gt;Combat&lt;br&gt;Merchant&lt;br&gt;Save NPC&lt;br&gt;Campfire Scene&lt;br&gt;Hidden Event linked to an item.&lt;br&gt;&lt;br&gt;&lt;/p&gt;" style="text;html=1;strokeColor=none;fillColor=none;spacing=5;spacingTop=-20;whiteSpace=wrap;overflow=hidden;rounded=0;" vertex="1" parent="1">
          <mxGeometry x="300" y="270" width="190" height="120" as="geometry" />
        </mxCell>
        <mxCell id="j-bda5yq90lWmngKnm9B-28" value="&lt;h1&gt;Turn Logic&lt;/h1&gt;&lt;p&gt;1. General Screen: Maybe show a sequence, and you have to enter the sequence to attack/cast spell.&lt;br&gt;&lt;span style=&quot;white-space: pre;&quot;&gt;&#x9;&lt;/span&gt;End Boss: Flashes the sequence, and then hides it.&lt;br&gt;&lt;/p&gt;&lt;p&gt;2. Chat Screen: depending on chat choices, changes inventory/stats/recruits?&lt;/p&gt;" style="text;html=1;strokeColor=none;fillColor=none;spacing=5;spacingTop=-20;whiteSpace=wrap;overflow=hidden;rounded=0;" vertex="1" parent="1">
          <mxGeometry x="300" y="410" width="229" height="190" as="geometry" />
        </mxCell>
        <mxCell id="j-bda5yq90lWmngKnm9B-29" value="&lt;h1&gt;&lt;span style=&quot;background-color: initial;&quot;&gt;End Game Conditions&lt;/span&gt;&lt;/h1&gt;&lt;div&gt;&lt;span style=&quot;background-color: initial;&quot;&gt;1. Defeat final boss by inputting the sequence successfully 5x in a row.&lt;/span&gt;&lt;/div&gt;&lt;div&gt;&lt;span style=&quot;background-color: initial;&quot;&gt;2. Run out of Health (death).&lt;/span&gt;&lt;/div&gt;&lt;div&gt;3. Some kind of Hidden Event&lt;/div&gt;&lt;div&gt;&lt;span style=&quot;background-color: initial;&quot;&gt;&lt;br&gt;&lt;/span&gt;&lt;/div&gt;" style="text;html=1;strokeColor=none;fillColor=none;spacing=5;spacingTop=-20;whiteSpace=wrap;overflow=hidden;rounded=0;" vertex="1" parent="1">
          <mxGeometry x="300" y="610" width="280" height="130" as="geometry" />
        </mxCell>
        <mxCell id="j-bda5yq90lWmngKnm9B-30" value="" style="endArrow=none;dashed=1;html=1;dashPattern=1 3;strokeWidth=2;rounded=0;" edge="1" parent="1">
          <mxGeometry width="50" height="50" relative="1" as="geometry">
            <mxPoint x="50" y="780" as="sourcePoint" />
            <mxPoint x="602" y="780" as="targetPoint" />
            <Array as="points">
              <mxPoint x="302" y="780" />
            </Array>
          </mxGeometry>
        </mxCell>
        <mxCell id="j-bda5yq90lWmngKnm9B-52" value="Find an APi for characters.&lt;br&gt;" style="text;html=1;align=center;verticalAlign=middle;resizable=0;points=[];autosize=1;strokeColor=none;fillColor=none;" vertex="1" parent="1">
          <mxGeometry x="510" y="338" width="160" height="30" as="geometry" />
        </mxCell>
        <mxCell id="j-bda5yq90lWmngKnm9B-73" style="edgeStyle=orthogonalEdgeStyle;rounded=0;orthogonalLoop=1;jettySize=auto;html=1;" edge="1" parent="1" source="j-bda5yq90lWmngKnm9B-53" target="j-bda5yq90lWmngKnm9B-65">
          <mxGeometry relative="1" as="geometry" />
        </mxCell>
        <mxCell id="j-bda5yq90lWmngKnm9B-53" value="" style="rounded=1;whiteSpace=wrap;html=1;" vertex="1" parent="1">
          <mxGeometry x="10" y="-400" width="250" height="150" as="geometry" />
        </mxCell>
        <mxCell id="j-bda5yq90lWmngKnm9B-56" value="Name:" style="text;html=1;strokeColor=none;fillColor=none;align=center;verticalAlign=middle;whiteSpace=wrap;rounded=0;" vertex="1" parent="1">
          <mxGeometry x="10" y="-280" width="60" height="30" as="geometry" />
        </mxCell>
        <mxCell id="j-bda5yq90lWmngKnm9B-57" value="" style="rounded=1;whiteSpace=wrap;html=1;" vertex="1" parent="1">
          <mxGeometry x="65" y="-275" width="115" height="20" as="geometry" />
        </mxCell>
        <mxCell id="j-bda5yq90lWmngKnm9B-58" value="Introduction screen. Type in name (pcName).&lt;br&gt;Choose the PC&#39;s class.&lt;br&gt;A. Rogue (Daggers&amp;nbsp; &amp;amp;&amp;amp; Coin @ End of Battle)&lt;br&gt;B. Paladin (Sword + Shield &amp;amp;&amp;amp; Spell: Heal)&lt;br&gt;C. Wizard (Wand &amp;amp;&amp;amp; Spell (Choose 1): Fireball (FIRE), Ice Shards (WATER), Boulder (EARTH), Lightning Bolt(AIR))&lt;br&gt;&lt;br&gt;// CAMPFIRE BACKGROUND" style="text;html=1;strokeColor=none;fillColor=none;align=center;verticalAlign=middle;whiteSpace=wrap;rounded=0;" vertex="1" parent="1">
          <mxGeometry x="6" y="-250" width="254" height="150" as="geometry" />
        </mxCell>
        <mxCell id="j-bda5yq90lWmngKnm9B-59" value="ROGUE" style="shape=umlActor;verticalLabelPosition=bottom;verticalAlign=top;html=1;outlineConnect=0;" vertex="1" parent="1">
          <mxGeometry x="40" y="-370" width="30" height="60" as="geometry" />
        </mxCell>
        <mxCell id="j-bda5yq90lWmngKnm9B-62" value="PALADIN" style="shape=umlActor;verticalLabelPosition=bottom;verticalAlign=top;html=1;outlineConnect=0;" vertex="1" parent="1">
          <mxGeometry x="125" y="-370" width="30" height="60" as="geometry" />
        </mxCell>
        <mxCell id="j-bda5yq90lWmngKnm9B-63" value="WIZARD" style="shape=umlActor;verticalLabelPosition=bottom;verticalAlign=top;html=1;outlineConnect=0;" vertex="1" parent="1">
          <mxGeometry x="205" y="-370" width="30" height="60" as="geometry" />
        </mxCell>
        <mxCell id="j-bda5yq90lWmngKnm9B-74" value="" style="edgeStyle=orthogonalEdgeStyle;rounded=0;orthogonalLoop=1;jettySize=auto;html=1;" edge="1" parent="1" source="j-bda5yq90lWmngKnm9B-65" target="j-bda5yq90lWmngKnm9B-66">
          <mxGeometry relative="1" as="geometry" />
        </mxCell>
        <mxCell id="j-bda5yq90lWmngKnm9B-65" value="" style="rounded=1;whiteSpace=wrap;html=1;" vertex="1" parent="1">
          <mxGeometry x="310" y="-400" width="250" height="150" as="geometry" />
        </mxCell>
        <mxCell id="j-bda5yq90lWmngKnm9B-75" value="" style="edgeStyle=orthogonalEdgeStyle;rounded=0;orthogonalLoop=1;jettySize=auto;html=1;" edge="1" parent="1" source="j-bda5yq90lWmngKnm9B-66" target="j-bda5yq90lWmngKnm9B-67">
          <mxGeometry relative="1" as="geometry" />
        </mxCell>
        <mxCell id="j-bda5yq90lWmngKnm9B-66" value="" style="rounded=1;whiteSpace=wrap;html=1;" vertex="1" parent="1">
          <mxGeometry x="590" y="-400" width="250" height="150" as="geometry" />
        </mxCell>
        <mxCell id="j-bda5yq90lWmngKnm9B-76" value="" style="edgeStyle=orthogonalEdgeStyle;rounded=0;orthogonalLoop=1;jettySize=auto;html=1;" edge="1" parent="1" source="j-bda5yq90lWmngKnm9B-67" target="j-bda5yq90lWmngKnm9B-69">
          <mxGeometry relative="1" as="geometry" />
        </mxCell>
        <mxCell id="j-bda5yq90lWmngKnm9B-92" value="" style="edgeStyle=orthogonalEdgeStyle;rounded=0;orthogonalLoop=1;jettySize=auto;html=1;" edge="1" parent="1" source="j-bda5yq90lWmngKnm9B-67" target="j-bda5yq90lWmngKnm9B-91">
          <mxGeometry relative="1" as="geometry" />
        </mxCell>
        <mxCell id="j-bda5yq90lWmngKnm9B-67" value="" style="rounded=1;whiteSpace=wrap;html=1;" vertex="1" parent="1">
          <mxGeometry x="860" y="-400" width="250" height="150" as="geometry" />
        </mxCell>
        <mxCell id="j-bda5yq90lWmngKnm9B-89" value="" style="edgeStyle=orthogonalEdgeStyle;rounded=0;orthogonalLoop=1;jettySize=auto;html=1;" edge="1" parent="1" source="j-bda5yq90lWmngKnm9B-69" target="j-bda5yq90lWmngKnm9B-70">
          <mxGeometry relative="1" as="geometry" />
        </mxCell>
        <mxCell id="j-bda5yq90lWmngKnm9B-69" value="" style="rounded=1;whiteSpace=wrap;html=1;" vertex="1" parent="1">
          <mxGeometry x="1205" y="-400" width="250" height="150" as="geometry" />
        </mxCell>
        <mxCell id="j-bda5yq90lWmngKnm9B-101" value="" style="edgeStyle=orthogonalEdgeStyle;rounded=0;orthogonalLoop=1;jettySize=auto;html=1;" edge="1" parent="1" source="j-bda5yq90lWmngKnm9B-70" target="j-bda5yq90lWmngKnm9B-98">
          <mxGeometry relative="1" as="geometry" />
        </mxCell>
        <mxCell id="j-bda5yq90lWmngKnm9B-70" value="" style="rounded=1;whiteSpace=wrap;html=1;" vertex="1" parent="1">
          <mxGeometry x="1205" y="-220" width="250" height="150" as="geometry" />
        </mxCell>
        <mxCell id="j-bda5yq90lWmngKnm9B-71" value="FORK IN THE ROAD: Introduction scene, explain the journey/goal.&amp;nbsp;&lt;br&gt;&lt;br&gt;// FORK IN THE ROAD BACKGROUND" style="text;html=1;strokeColor=none;fillColor=none;align=center;verticalAlign=middle;whiteSpace=wrap;rounded=0;" vertex="1" parent="1">
          <mxGeometry x="317" y="-540" width="240" height="150" as="geometry" />
        </mxCell>
        <mxCell id="j-bda5yq90lWmngKnm9B-78" value="PC&lt;br&gt;" style="shape=umlActor;verticalLabelPosition=bottom;verticalAlign=top;html=1;outlineConnect=0;" vertex="1" parent="1">
          <mxGeometry x="422" y="-315" width="30" height="60" as="geometry" />
        </mxCell>
        <mxCell id="j-bda5yq90lWmngKnm9B-81" value="MONSTER" style="shape=umlActor;verticalLabelPosition=bottom;verticalAlign=top;html=1;outlineConnect=0;" vertex="1" parent="1">
          <mxGeometry x="620" y="-355" width="30" height="60" as="geometry" />
        </mxCell>
        <mxCell id="j-bda5yq90lWmngKnm9B-82" value="PC&lt;br&gt;" style="shape=umlActor;verticalLabelPosition=bottom;verticalAlign=top;html=1;outlineConnect=0;" vertex="1" parent="1">
          <mxGeometry x="780" y="-355" width="30" height="60" as="geometry" />
        </mxCell>
        <mxCell id="j-bda5yq90lWmngKnm9B-83" value="INTRODUCTION BATTLE: Combat versus one monster. Goblin.&lt;br&gt;&lt;br&gt;// COMBAT1 BACKGROUND" style="text;html=1;strokeColor=none;fillColor=none;align=center;verticalAlign=middle;whiteSpace=wrap;rounded=0;" vertex="1" parent="1">
          <mxGeometry x="595" y="-540" width="240" height="150" as="geometry" />
        </mxCell>
        <mxCell id="j-bda5yq90lWmngKnm9B-84" value="MON1" style="shape=umlActor;verticalLabelPosition=bottom;verticalAlign=top;html=1;outlineConnect=0;" vertex="1" parent="1">
          <mxGeometry x="880" y="-355" width="30" height="60" as="geometry" />
        </mxCell>
        <mxCell id="j-bda5yq90lWmngKnm9B-85" value="PC&lt;br&gt;" style="shape=umlActor;verticalLabelPosition=bottom;verticalAlign=top;html=1;outlineConnect=0;" vertex="1" parent="1">
          <mxGeometry x="1050" y="-355" width="30" height="60" as="geometry" />
        </mxCell>
        <mxCell id="j-bda5yq90lWmngKnm9B-86" value="MON2" style="shape=umlActor;verticalLabelPosition=bottom;verticalAlign=top;html=1;outlineConnect=0;" vertex="1" parent="1">
          <mxGeometry x="920" y="-355" width="30" height="60" as="geometry" />
        </mxCell>
        <mxCell id="j-bda5yq90lWmngKnm9B-87" value="MULTIPLE MONSTER BATTLE: Combat versus two monsters. Goblins.&lt;br&gt;&lt;br&gt;// COMBAT1 BACKGROUND" style="text;html=1;strokeColor=none;fillColor=none;align=center;verticalAlign=middle;whiteSpace=wrap;rounded=0;" vertex="1" parent="1">
          <mxGeometry x="865" y="-540" width="240" height="150" as="geometry" />
        </mxCell>
        <mxCell id="j-bda5yq90lWmngKnm9B-88" value="REST" style="text;html=1;strokeColor=none;fillColor=none;align=center;verticalAlign=middle;whiteSpace=wrap;rounded=0;" vertex="1" parent="1">
          <mxGeometry x="1130" y="-355" width="60" height="30" as="geometry" />
        </mxCell>
        <mxCell id="j-bda5yq90lWmngKnm9B-90" value="MERCHANT" style="text;html=1;strokeColor=none;fillColor=none;align=center;verticalAlign=middle;whiteSpace=wrap;rounded=0;" vertex="1" parent="1">
          <mxGeometry x="1220" y="-250" width="60" height="30" as="geometry" />
        </mxCell>
        <mxCell id="j-bda5yq90lWmngKnm9B-107" value="" style="edgeStyle=orthogonalEdgeStyle;rounded=0;orthogonalLoop=1;jettySize=auto;html=1;" edge="1" parent="1" source="j-bda5yq90lWmngKnm9B-91" target="j-bda5yq90lWmngKnm9B-105">
          <mxGeometry relative="1" as="geometry" />
        </mxCell>
        <mxCell id="j-bda5yq90lWmngKnm9B-91" value="" style="rounded=1;whiteSpace=wrap;html=1;" vertex="1" parent="1">
          <mxGeometry x="860" y="-220" width="250" height="150" as="geometry" />
        </mxCell>
        <mxCell id="j-bda5yq90lWmngKnm9B-93" value="" style="endArrow=classic;html=1;rounded=0;entryX=1.002;entryY=0.191;entryDx=0;entryDy=0;entryPerimeter=0;" edge="1" parent="1" target="j-bda5yq90lWmngKnm9B-91">
          <mxGeometry width="50" height="50" relative="1" as="geometry">
            <mxPoint x="1214.5" y="-260" as="sourcePoint" />
            <mxPoint x="1130" y="-206.25" as="targetPoint" />
          </mxGeometry>
        </mxCell>
        <mxCell id="j-bda5yq90lWmngKnm9B-94" value="SLEEP" style="text;html=1;strokeColor=none;fillColor=none;align=center;verticalAlign=middle;whiteSpace=wrap;rounded=0;rotation=-30;" vertex="1" parent="1">
          <mxGeometry x="1130" y="-250" width="60" height="30" as="geometry" />
        </mxCell>
        <mxCell id="j-bda5yq90lWmngKnm9B-97" value="CONTINUE" style="text;html=1;strokeColor=none;fillColor=none;align=center;verticalAlign=middle;whiteSpace=wrap;rounded=0;" vertex="1" parent="1">
          <mxGeometry x="920" y="-250" width="60" height="30" as="geometry" />
        </mxCell>
        <mxCell id="j-bda5yq90lWmngKnm9B-98" value="" style="rounded=1;whiteSpace=wrap;html=1;" vertex="1" parent="1">
          <mxGeometry x="1205" y="-40" width="250" height="150" as="geometry" />
        </mxCell>
        <mxCell id="j-bda5yq90lWmngKnm9B-100" value="DONT HELP" style="text;html=1;strokeColor=none;fillColor=none;align=center;verticalAlign=middle;whiteSpace=wrap;rounded=0;" vertex="1" parent="1">
          <mxGeometry x="1355" y="-250" width="100" height="30" as="geometry" />
        </mxCell>
        <mxCell id="j-bda5yq90lWmngKnm9B-102" value="HELP" style="text;html=1;strokeColor=none;fillColor=none;align=center;verticalAlign=middle;whiteSpace=wrap;rounded=0;" vertex="1" parent="1">
          <mxGeometry x="1330" y="-70" width="60" height="30" as="geometry" />
        </mxCell>
        <mxCell id="j-bda5yq90lWmngKnm9B-108" value="" style="edgeStyle=orthogonalEdgeStyle;rounded=0;orthogonalLoop=1;jettySize=auto;html=1;" edge="1" parent="1" source="j-bda5yq90lWmngKnm9B-105" target="j-bda5yq90lWmngKnm9B-106">
          <mxGeometry relative="1" as="geometry" />
        </mxCell>
        <mxCell id="j-bda5yq90lWmngKnm9B-105" value="" style="rounded=1;whiteSpace=wrap;html=1;" vertex="1" parent="1">
          <mxGeometry x="590" y="-220" width="250" height="150" as="geometry" />
        </mxCell>
        <mxCell id="j-bda5yq90lWmngKnm9B-106" value="" style="rounded=1;whiteSpace=wrap;html=1;" vertex="1" parent="1">
          <mxGeometry x="317" y="-220" width="250" height="150" as="geometry" />
        </mxCell>
        <mxCell id="j-bda5yq90lWmngKnm9B-109" value="(OPTIONAL) CAMPFIRE SCENE&lt;br&gt;OPTIONS:&lt;br&gt;1. SLEEP&lt;br&gt;2. MERCHANT&lt;br&gt;2.A. BUY/SELL&lt;br&gt;2.B HELP&lt;br&gt;&lt;br&gt;// CAMPFIRE BACKGROUND" style="text;html=1;strokeColor=none;fillColor=none;align=center;verticalAlign=middle;whiteSpace=wrap;rounded=0;" vertex="1" parent="1">
          <mxGeometry x="1210" y="-540" width="240" height="150" as="geometry" />
        </mxCell>
        <mxCell id="j-bda5yq90lWmngKnm9B-112" value="" style="endArrow=classic;html=1;rounded=0;" edge="1" parent="1">
          <mxGeometry width="50" height="50" relative="1" as="geometry">
            <mxPoint x="1370" y="-220" as="sourcePoint" />
            <mxPoint x="1370" y="-250" as="targetPoint" />
          </mxGeometry>
        </mxCell>
        <mxCell id="j-bda5yq90lWmngKnm9B-113" value="" style="endArrow=classic;html=1;rounded=0;exitX=0;exitY=0;exitDx=0;exitDy=0;entryX=0;entryY=0;entryDx=0;entryDy=0;" edge="1" parent="1" source="j-bda5yq90lWmngKnm9B-98" target="j-bda5yq90lWmngKnm9B-90">
          <mxGeometry width="50" height="50" relative="1" as="geometry">
            <mxPoint x="1140" y="-30" as="sourcePoint" />
            <mxPoint x="1160" y="-40" as="targetPoint" />
            <Array as="points">
              <mxPoint x="1160" y="-40" />
              <mxPoint x="1160" y="-190" />
            </Array>
          </mxGeometry>
        </mxCell>
        <mxCell id="j-bda5yq90lWmngKnm9B-114" value="PC&lt;br&gt;" style="shape=umlActor;verticalLabelPosition=bottom;verticalAlign=top;html=1;outlineConnect=0;" vertex="1" parent="1">
          <mxGeometry x="1220" y="-355" width="30" height="60" as="geometry" />
        </mxCell>
        <mxCell id="j-bda5yq90lWmngKnm9B-115" value="MERCH&lt;br&gt;" style="shape=umlActor;verticalLabelPosition=bottom;verticalAlign=top;html=1;outlineConnect=0;" vertex="1" parent="1">
          <mxGeometry x="1400" y="-355" width="30" height="60" as="geometry" />
        </mxCell>
        <mxCell id="j-bda5yq90lWmngKnm9B-116" value="MERCH&lt;br&gt;" style="shape=umlActor;verticalLabelPosition=bottom;verticalAlign=top;html=1;outlineConnect=0;" vertex="1" parent="1">
          <mxGeometry x="1240" y="-190" width="30" height="60" as="geometry" />
        </mxCell>
        <mxCell id="j-bda5yq90lWmngKnm9B-117" value="CHAT&lt;br&gt;BUY&lt;br&gt;SELL&lt;br&gt;HELP" style="text;html=1;strokeColor=none;fillColor=none;align=center;verticalAlign=middle;whiteSpace=wrap;rounded=0;" vertex="1" parent="1">
          <mxGeometry x="1290" y="-200" width="150" height="100" as="geometry" />
        </mxCell>
        <mxCell id="j-bda5yq90lWmngKnm9B-118" value="RIDDLE OR PUZZLE. COMPLETION = REWARDS.&amp;nbsp;&lt;br&gt;1. SECRET ENDING ITEM&lt;br&gt;2. AUTO-REVIVE ITEM &amp;amp; MONEY" style="text;html=1;strokeColor=none;fillColor=none;align=center;verticalAlign=middle;whiteSpace=wrap;rounded=0;" vertex="1" parent="1">
          <mxGeometry x="1215" y="-30" width="230" height="130" as="geometry" />
        </mxCell>
        <mxCell id="j-bda5yq90lWmngKnm9B-119" value="MULTIPLE MONSTER BATTLE: Combat versus THREE monsters. Goblins.&lt;br&gt;&lt;br&gt;// COMBAT2 BACKGROUND" style="text;html=1;strokeColor=none;fillColor=none;align=center;verticalAlign=middle;whiteSpace=wrap;rounded=0;" vertex="1" parent="1">
          <mxGeometry x="865" y="-60" width="240" height="150" as="geometry" />
        </mxCell>
        <mxCell id="j-bda5yq90lWmngKnm9B-120" value="OWLBEAR CUB RESCUE: WIll you save the owlbear? Y/N&lt;br&gt;&lt;br&gt;// BACKGROUND" style="text;html=1;strokeColor=none;fillColor=none;align=center;verticalAlign=middle;whiteSpace=wrap;rounded=0;" vertex="1" parent="1">
          <mxGeometry x="595" y="-60" width="240" height="150" as="geometry" />
        </mxCell>
        <mxCell id="j-bda5yq90lWmngKnm9B-121" value="RIDDLE OR PUZZLE. Complete grants unlocks the cage, and triggers the next scene." style="text;html=1;strokeColor=none;fillColor=none;align=center;verticalAlign=middle;whiteSpace=wrap;rounded=0;" vertex="1" parent="1">
          <mxGeometry x="680" y="220" width="230" height="130" as="geometry" />
        </mxCell>
        <mxCell id="j-bda5yq90lWmngKnm9B-129" value="" style="edgeStyle=orthogonalEdgeStyle;rounded=0;orthogonalLoop=1;jettySize=auto;html=1;" edge="1" parent="1" source="j-bda5yq90lWmngKnm9B-122" target="j-bda5yq90lWmngKnm9B-123">
          <mxGeometry relative="1" as="geometry" />
        </mxCell>
        <mxCell id="j-bda5yq90lWmngKnm9B-122" value="" style="rounded=1;whiteSpace=wrap;html=1;" vertex="1" parent="1">
          <mxGeometry x="670" y="80" width="250" height="150" as="geometry" />
        </mxCell>
        <mxCell id="j-bda5yq90lWmngKnm9B-123" value="" style="rounded=1;whiteSpace=wrap;html=1;" vertex="1" parent="1">
          <mxGeometry x="940" y="80" width="250" height="150" as="geometry" />
        </mxCell>
        <mxCell id="j-bda5yq90lWmngKnm9B-124" value="OWLBEAR CUB COMBAT: Mini-Boss to save the Owlbear Cub&amp;nbsp;&lt;br&gt;&lt;br&gt;// BACKGROUND" style="text;html=1;strokeColor=none;fillColor=none;align=center;verticalAlign=middle;whiteSpace=wrap;rounded=0;" vertex="1" parent="1">
          <mxGeometry x="317" y="-60" width="240" height="150" as="geometry" />
        </mxCell>
        <mxCell id="j-bda5yq90lWmngKnm9B-125" value="" style="endArrow=classic;html=1;rounded=0;exitX=0;exitY=0.5;exitDx=0;exitDy=0;entryX=0;entryY=0.25;entryDx=0;entryDy=0;" edge="1" parent="1" source="j-bda5yq90lWmngKnm9B-106" target="j-bda5yq90lWmngKnm9B-122">
          <mxGeometry width="50" height="50" relative="1" as="geometry">
            <mxPoint x="300" y="-150" as="sourcePoint" />
            <mxPoint x="275" y="-40" as="targetPoint" />
            <Array as="points">
              <mxPoint x="290" y="-145" />
              <mxPoint x="290" y="120" />
            </Array>
          </mxGeometry>
        </mxCell>
        <mxCell id="j-bda5yq90lWmngKnm9B-126" value="Y" style="text;html=1;strokeColor=none;fillColor=none;align=center;verticalAlign=middle;whiteSpace=wrap;rounded=0;" vertex="1" parent="1">
          <mxGeometry x="550" y="-175" width="60" height="30" as="geometry" />
        </mxCell>
        <mxCell id="j-bda5yq90lWmngKnm9B-127" value="" style="endArrow=classic;html=1;rounded=0;entryX=0.5;entryY=0;entryDx=0;entryDy=0;exitX=0.5;exitY=1;exitDx=0;exitDy=0;" edge="1" parent="1" source="j-bda5yq90lWmngKnm9B-105" target="j-bda5yq90lWmngKnm9B-122">
          <mxGeometry width="50" height="50" relative="1" as="geometry">
            <mxPoint x="785" y="50" as="sourcePoint" />
            <mxPoint x="835" as="targetPoint" />
            <Array as="points">
              <mxPoint x="715" y="-40" />
              <mxPoint x="870" y="-40" />
              <mxPoint x="870" y="40" />
              <mxPoint x="795" y="40" />
            </Array>
          </mxGeometry>
        </mxCell>
        <mxCell id="j-bda5yq90lWmngKnm9B-128" value="N" style="text;html=1;strokeColor=none;fillColor=none;align=center;verticalAlign=middle;whiteSpace=wrap;rounded=0;" vertex="1" parent="1">
          <mxGeometry x="698" y="-70" width="60" height="30" as="geometry" />
        </mxCell>
        <mxCell id="j-bda5yq90lWmngKnm9B-131" value="FINAL BOSS REVEAL: Final boss reveals themselves, and explains plan.&lt;br&gt;&lt;br&gt;// INSIDE BACKGROUND" style="text;html=1;strokeColor=none;fillColor=none;align=center;verticalAlign=middle;whiteSpace=wrap;rounded=0;" vertex="1" parent="1">
          <mxGeometry x="950" y="210" width="230" height="130" as="geometry" />
        </mxCell>
        <mxCell id="j-bda5yq90lWmngKnm9B-132" value="PC&lt;br&gt;" style="shape=umlActor;verticalLabelPosition=bottom;verticalAlign=top;html=1;outlineConnect=0;" vertex="1" parent="1">
          <mxGeometry x="1134" y="130" width="30" height="60" as="geometry" />
        </mxCell>
        <mxCell id="j-bda5yq90lWmngKnm9B-134" value="BIGBADDIE&lt;br&gt;" style="shape=umlActor;verticalLabelPosition=bottom;verticalAlign=top;html=1;outlineConnect=0;" vertex="1" parent="1">
          <mxGeometry x="965" y="130" width="30" height="60" as="geometry" />
        </mxCell>
        <mxCell id="j-bda5yq90lWmngKnm9B-135" value="" style="rounded=1;whiteSpace=wrap;html=1;" vertex="1" parent="1">
          <mxGeometry x="670" y="350" width="250" height="150" as="geometry" />
        </mxCell>
        <mxCell id="j-bda5yq90lWmngKnm9B-136" value="" style="rounded=1;whiteSpace=wrap;html=1;" vertex="1" parent="1">
          <mxGeometry x="1185" y="350" width="250" height="150" as="geometry" />
        </mxCell>
        <mxCell id="j-bda5yq90lWmngKnm9B-137" value="" style="endArrow=classic;html=1;rounded=0;exitX=1;exitY=1;exitDx=0;exitDy=0;entryX=0.55;entryY=-0.027;entryDx=0;entryDy=0;entryPerimeter=0;" edge="1" parent="1" source="j-bda5yq90lWmngKnm9B-123" target="j-bda5yq90lWmngKnm9B-136">
          <mxGeometry width="50" height="50" relative="1" as="geometry">
            <mxPoint x="950" y="450" as="sourcePoint" />
            <mxPoint x="1010" y="540" as="targetPoint" />
          </mxGeometry>
        </mxCell>
        <mxCell id="j-bda5yq90lWmngKnm9B-138" value="" style="endArrow=classic;html=1;rounded=0;exitX=0;exitY=1;exitDx=0;exitDy=0;entryX=1;entryY=0;entryDx=0;entryDy=0;" edge="1" parent="1" source="j-bda5yq90lWmngKnm9B-123" target="j-bda5yq90lWmngKnm9B-135">
          <mxGeometry width="50" height="50" relative="1" as="geometry">
            <mxPoint x="950" y="245" as="sourcePoint" />
            <mxPoint x="890" y="395" as="targetPoint" />
            <Array as="points">
              <mxPoint x="920" y="240" />
              <mxPoint x="920" y="320" />
            </Array>
          </mxGeometry>
        </mxCell>
        <mxCell id="j-bda5yq90lWmngKnm9B-139" value="IF secretItem == true, owlbearSafe == true,&lt;br&gt;SECRET ENDING&lt;br&gt;&lt;br&gt;OWLBEAR EATS BIGBADDIE&lt;br&gt;&lt;br&gt;// COMBAT3 BACKGROUND" style="text;html=1;strokeColor=none;fillColor=none;align=center;verticalAlign=middle;whiteSpace=wrap;rounded=0;" vertex="1" parent="1">
          <mxGeometry x="680" y="500" width="230" height="130" as="geometry" />
        </mxCell>
        <mxCell id="j-bda5yq90lWmngKnm9B-140" value="FINAL BOSS FIGHT: Combat verus Final Boss.&amp;nbsp;&lt;br&gt;&lt;br&gt;// COMBAT3 BACKGROUND&lt;br&gt;?? Maybe Epic Music ??" style="text;html=1;strokeColor=none;fillColor=none;align=center;verticalAlign=middle;whiteSpace=wrap;rounded=0;" vertex="1" parent="1">
          <mxGeometry x="1190" y="490" width="240" height="150" as="geometry" />
        </mxCell>
        <mxCell id="j-bda5yq90lWmngKnm9B-141" value="" style="endArrow=none;dashed=1;html=1;dashPattern=1 3;strokeWidth=2;rounded=0;entryX=1;entryY=1;entryDx=0;entryDy=0;" edge="1" parent="1">
          <mxGeometry width="50" height="50" relative="1" as="geometry">
            <mxPoint x="650" y="628.82" as="sourcePoint" />
            <mxPoint x="1430.0000000000005" y="628.82" as="targetPoint" />
          </mxGeometry>
        </mxCell>
        <mxCell id="j-bda5yq90lWmngKnm9B-142" value="" style="rounded=1;whiteSpace=wrap;html=1;" vertex="1" parent="1">
          <mxGeometry x="660" y="640" width="250" height="150" as="geometry" />
        </mxCell>
        <mxCell id="j-bda5yq90lWmngKnm9B-143" value="GAME OVER" style="text;html=1;strokeColor=none;fillColor=none;align=center;verticalAlign=middle;whiteSpace=wrap;rounded=0;" vertex="1" parent="1">
          <mxGeometry x="725" y="700" width="110" height="30" as="geometry" />
        </mxCell>
        <mxCell id="j-bda5yq90lWmngKnm9B-145" value="" style="rounded=1;whiteSpace=wrap;html=1;" vertex="1" parent="1">
          <mxGeometry x="965" y="640" width="250" height="150" as="geometry" />
        </mxCell>
        <mxCell id="j-bda5yq90lWmngKnm9B-147" value="CREDITS SCENE&lt;br&gt;&lt;br&gt;(also include any sources)" style="text;html=1;strokeColor=none;fillColor=none;align=center;verticalAlign=middle;whiteSpace=wrap;rounded=0;" vertex="1" parent="1">
          <mxGeometry x="1215" y="640" width="240" height="150" as="geometry" />
        </mxCell>
        <mxCell id="j-bda5yq90lWmngKnm9B-149" value="PC&lt;br&gt;" style="shape=umlActor;verticalLabelPosition=bottom;verticalAlign=top;html=1;outlineConnect=0;" vertex="1" parent="1">
          <mxGeometry x="1050" y="-175" width="30" height="60" as="geometry" />
        </mxCell>
        <mxCell id="j-bda5yq90lWmngKnm9B-150" value="MON1" style="shape=umlActor;verticalLabelPosition=bottom;verticalAlign=top;html=1;outlineConnect=0;" vertex="1" parent="1">
          <mxGeometry x="880" y="-180" width="30" height="60" as="geometry" />
        </mxCell>
        <mxCell id="j-bda5yq90lWmngKnm9B-151" value="MON2" style="shape=umlActor;verticalLabelPosition=bottom;verticalAlign=top;html=1;outlineConnect=0;" vertex="1" parent="1">
          <mxGeometry x="920" y="-180" width="30" height="60" as="geometry" />
        </mxCell>
        <mxCell id="j-bda5yq90lWmngKnm9B-153" value="MON3" style="shape=umlActor;verticalLabelPosition=bottom;verticalAlign=top;html=1;outlineConnect=0;" vertex="1" parent="1">
          <mxGeometry x="960" y="-180" width="30" height="60" as="geometry" />
        </mxCell>
        <mxCell id="j-bda5yq90lWmngKnm9B-154" value="" style="ellipse;whiteSpace=wrap;html=1;" vertex="1" parent="1">
          <mxGeometry x="610" y="-140" width="25" height="30" as="geometry" />
        </mxCell>
        <mxCell id="j-bda5yq90lWmngKnm9B-155" value="MON1" style="shape=umlActor;verticalLabelPosition=bottom;verticalAlign=top;html=1;outlineConnect=0;" vertex="1" parent="1">
          <mxGeometry x="640" y="-180" width="30" height="60" as="geometry" />
        </mxCell>
        <mxCell id="j-bda5yq90lWmngKnm9B-156" value="PC&lt;br&gt;" style="shape=umlActor;verticalLabelPosition=bottom;verticalAlign=top;html=1;outlineConnect=0;" vertex="1" parent="1">
          <mxGeometry x="780" y="-180" width="30" height="60" as="geometry" />
        </mxCell>
        <mxCell id="j-bda5yq90lWmngKnm9B-157" value="MINIBOSS&lt;br&gt;" style="shape=umlActor;verticalLabelPosition=bottom;verticalAlign=top;html=1;outlineConnect=0;" vertex="1" parent="1">
          <mxGeometry x="350" y="-180" width="30" height="60" as="geometry" />
        </mxCell>
        <mxCell id="j-bda5yq90lWmngKnm9B-159" value="PC&lt;br&gt;" style="shape=umlActor;verticalLabelPosition=bottom;verticalAlign=top;html=1;outlineConnect=0;" vertex="1" parent="1">
          <mxGeometry x="490" y="-180" width="30" height="60" as="geometry" />
        </mxCell>
        <mxCell id="j-bda5yq90lWmngKnm9B-160" value="" style="shape=cube;whiteSpace=wrap;html=1;boundedLbl=1;backgroundOutline=1;darkOpacity=0.05;darkOpacity2=0.1;" vertex="1" parent="1">
          <mxGeometry x="690" y="120" width="120" height="80" as="geometry" />
        </mxCell>
        <mxCell id="j-bda5yq90lWmngKnm9B-162" value="PC&lt;br&gt;" style="shape=umlActor;verticalLabelPosition=bottom;verticalAlign=top;html=1;outlineConnect=0;" vertex="1" parent="1">
          <mxGeometry x="865" y="130" width="30" height="60" as="geometry" />
        </mxCell>
        <mxCell id="j-bda5yq90lWmngKnm9B-163" value="Actor" style="shape=umlActor;verticalLabelPosition=bottom;verticalAlign=top;html=1;outlineConnect=0;" vertex="1" parent="1">
          <mxGeometry x="750" y="150" width="20" height="40" as="geometry" />
        </mxCell>
        <mxCell id="j-bda5yq90lWmngKnm9B-164" value="" style="endArrow=none;html=1;rounded=0;" edge="1" parent="1">
          <mxGeometry width="50" height="50" relative="1" as="geometry">
            <mxPoint x="728" y="207" as="sourcePoint" />
            <mxPoint x="728" y="137" as="targetPoint" />
          </mxGeometry>
        </mxCell>
        <mxCell id="j-bda5yq90lWmngKnm9B-165" value="" style="endArrow=none;html=1;rounded=0;" edge="1" parent="1">
          <mxGeometry width="50" height="50" relative="1" as="geometry">
            <mxPoint x="758" y="205" as="sourcePoint" />
            <mxPoint x="758" y="135" as="targetPoint" />
          </mxGeometry>
        </mxCell>
        <mxCell id="j-bda5yq90lWmngKnm9B-166" value="" style="endArrow=none;html=1;rounded=0;" edge="1" parent="1">
          <mxGeometry width="50" height="50" relative="1" as="geometry">
            <mxPoint x="784.44" y="205" as="sourcePoint" />
            <mxPoint x="784.44" y="135" as="targetPoint" />
          </mxGeometry>
        </mxCell>
        <mxCell id="j-bda5yq90lWmngKnm9B-167" value="PC&lt;br&gt;" style="shape=umlActor;verticalLabelPosition=bottom;verticalAlign=top;html=1;outlineConnect=0;" vertex="1" parent="1">
          <mxGeometry x="1384" y="395" width="30" height="60" as="geometry" />
        </mxCell>
        <mxCell id="j-bda5yq90lWmngKnm9B-168" value="BIGBADDIE&lt;br&gt;" style="shape=umlActor;verticalLabelPosition=bottom;verticalAlign=top;html=1;outlineConnect=0;" vertex="1" parent="1">
          <mxGeometry x="1215" y="395" width="30" height="60" as="geometry" />
        </mxCell>
      </root>
    </mxGraphModel>
  </diagram>
</mxfile>
